<?xml version="1.0" encoding="UTF-8" standalone="no"?>
<!-- Created with Inkscape (http://www.inkscape.org/) -->

<svg
   xmlns:dc="http://purl.org/dc/elements/1.1/"
   xmlns:cc="http://creativecommons.org/ns#"
   xmlns:rdf="http://www.w3.org/1999/02/22-rdf-syntax-ns#"
   xmlns:svg="http://www.w3.org/2000/svg"
   xmlns="http://www.w3.org/2000/svg"
   xmlns:sodipodi="http://sodipodi.sourceforge.net/DTD/sodipodi-0.dtd"
   xmlns:inkscape="http://www.inkscape.org/namespaces/inkscape"
   width="77.621712mm"
   height="77.621796mm"
   viewBox="0 0 275.03756 275.03786"
   id="svg4168"
   version="1.1"
   inkscape:version="0.91 r13725"
   sodipodi:docname="lab-smiley-book.svg">
  <defs
     id="defs4170" />
  <sodipodi:namedview
     id="base"
     pagecolor="#ffffff"
     bordercolor="#666666"
     borderopacity="1.0"
     inkscape:pageopacity="0.0"
     inkscape:pageshadow="2"
     inkscape:zoom="0.7"
     inkscape:cx="-344.67994"
     inkscape:cy="-119.78908"
     inkscape:document-units="px"
     inkscape:current-layer="layer1"
     showgrid="false"
     fit-margin-top="0"
     fit-margin-left="0"
     fit-margin-right="0"
     fit-margin-bottom="0" />
  <metadata
     id="metadata4173">
    <rdf:RDF>
      <cc:Work
         rdf:about="">
        <dc:format>image/svg+xml</dc:format>
        <dc:type
           rdf:resource="http://purl.org/dc/dcmitype/StillImage" />
        <dc:title></dc:title>
      </cc:Work>
    </rdf:RDF>
  </metadata>
  <g
     inkscape:label="Layer 1"
     inkscape:groupmode="layer"
     id="layer1"
     transform="translate(-405.33836,-10.557469)">
    <g
       id="g5057"
       transform="matrix(0.68144557,0,0,0.68144557,575.95592,-252.66571)">
      <ellipse
         ry="201.80472"
         rx="201.80449"
         cy="588.07648"
         cx="-48.571423"
         id="path4204-6-1"
         style="opacity:0.99599998;fill:#00d6ff;fill-opacity:1;stroke:none;stroke-width:1;stroke-miterlimit:4;stroke-dasharray:none;stroke-dashoffset:0;stroke-opacity:1" />
      <g
         style="stroke:#ffffff;stroke-width:10;stroke-linecap:round;stroke-miterlimit:4;stroke-dasharray:none;stroke-opacity:1"
         transform="translate(-443.33256,154.6786)"
         id="g4825-8-7">
        <path
           style="fill:none;fill-rule:evenodd;stroke:#ffffff;stroke-width:10;stroke-linecap:round;stroke-linejoin:miter;stroke-miterlimit:4;stroke-dasharray:none;stroke-opacity:1"
           d="m 286.11828,464.77031 c 2.20303,24.1575 9.26469,36.04862 9.26469,36.04862 15.57985,39.58703 38.28575,53.90795 94.53591,55.55838 41.53291,-0.85307 55.17193,-14.34159 75.76145,-28.28428 17.80646,-16.44307 25.57506,-31.04319 32.32487,-51.34446 2.7465,-19.87522 1.96985,-17.75243 1.18347,-27.02902"
           id="path4817-8-1"
           inkscape:connector-curvature="0"
           sodipodi:nodetypes="cccccc" />
        <path
           style="fill:none;fill-rule:evenodd;stroke:#ffffff;stroke-width:10;stroke-linecap:round;stroke-linejoin:miter;stroke-miterlimit:4;stroke-dasharray:none;stroke-opacity:1"
           d="m 432.34529,550.31639 c 3.45367,6.06091 6.13494,12.12183 12.12183,18.18274 24.81843,24.23919 30.78734,19.72276 60.60916,7.07108 14.57902,-14.33931 20.55624,-24.56631 11.11166,-43.43657 -7.49605,-19.46869 -22.75836,-12.24455 -36.78389,-16.33575"
           id="path4819-8-7"
           inkscape:connector-curvature="0"
           sodipodi:nodetypes="ccccc" />
        <path
           style="fill:none;fill-rule:evenodd;stroke:#ffffff;stroke-width:10;stroke-linecap:round;stroke-linejoin:miter;stroke-miterlimit:4;stroke-dasharray:none;stroke-opacity:1"
           d="m 462.64987,531.12349 c 6.55874,10.15572 14.09056,11.57378 23.23351,19.19289"
           id="path4821-9-3"
           inkscape:connector-curvature="0"
           sodipodi:nodetypes="cc" />
      </g>
      <path
         sodipodi:nodetypes="ccccccccc"
         inkscape:connector-curvature="0"
         id="path4956"
         d="m -174.28571,469.50506 7.14285,100 c 40.27254,-0.023 62.73004,11.83077 92.857146,18.57143 l 35.714285,0 C -8.2383919,580.93363 4.7087135,573.79078 52.857143,566.64792 L 44.285714,455.21935 c -39.3237075,2.51435 -64.207693,14.65519 -92.857143,24.28571 L -80,480.93363 Z"
         style="fill:#ffffff;fill-rule:evenodd;stroke:#ffffff;stroke-width:8;stroke-linecap:butt;stroke-linejoin:miter;stroke-miterlimit:4;stroke-dasharray:none;stroke-opacity:1" />
      <path
         sodipodi:nodetypes="ccccccccc"
         inkscape:connector-curvature="0"
         id="path4956-0"
         d="m -157.81498,457.90298 2.85714,98.57142 c 27.95347,10.68594 61.484862,20.60251 92.85714,31.42858 l 5.71428,0 c 26.63913,-10.58934 39.669274,-11.63004 94.285728,-28.57143 l -8.57143,-111.42857 c -33.4865072,0.49287 -64.121452,9.54043 -90.000012,32.85714 l -4.285703,4.28571 c -26.837892,-21.39108 -58.410803,-28.57712 -92.857143,-27.14285 z"
         style="fill:#ffffff;fill-rule:evenodd;stroke:#ffffff;stroke-width:8;stroke-linecap:butt;stroke-linejoin:miter;stroke-miterlimit:4;stroke-dasharray:none;stroke-opacity:1" />
      <path
         sodipodi:nodetypes="ccccccccc"
         inkscape:connector-curvature="0"
         id="path4956-1"
         d="m -164.95783,466.47441 8.57142,117.14286 94.285717,7.14285 22.857137,-1.42857 104.285721,-14.28571 -8.57143,-111.42857 -111.428577,15.71428 -25.714284,0 z"
         style="fill:none;fill-rule:evenodd;stroke:#ffffff;stroke-width:8;stroke-linecap:butt;stroke-linejoin:miter;stroke-miterlimit:4;stroke-dasharray:none;stroke-opacity:1" />
      <path
         inkscape:connector-curvature="0"
         id="path4988"
         d="m -67.142858,456.64792 10,134.28571 0,0"
         style="fill:none;fill-rule:evenodd;stroke:#00d6ff;stroke-width:4;stroke-linecap:butt;stroke-linejoin:miter;stroke-miterlimit:4;stroke-dasharray:none;stroke-opacity:0.99607843" />
      <path
         inkscape:connector-curvature="0"
         id="path4992"
         d="m -36.510933,484.23496 58.434287,-9.46127 -1.404423,-0.26156"
         style="fill:none;fill-rule:evenodd;stroke:#00d6ff;stroke-width:3;stroke-linecap:butt;stroke-linejoin:miter;stroke-miterlimit:4;stroke-dasharray:none;stroke-opacity:0.99607843" />
      <path
         inkscape:connector-curvature="0"
         id="path4992-1"
         d="m -35.796647,504.27905 58.434287,-9.46127 -1.404423,-0.26156"
         style="fill:none;fill-rule:evenodd;stroke:#00d6ff;stroke-width:3;stroke-linecap:butt;stroke-linejoin:miter;stroke-miterlimit:4;stroke-dasharray:none;stroke-opacity:0.99607843" />
      <path
         inkscape:connector-curvature="0"
         id="path4992-1-8"
         d="m -34.948875,522.93487 58.434287,-9.46127 -1.404423,-0.26156"
         style="fill:none;fill-rule:evenodd;stroke:#00d6ff;stroke-width:3;stroke-linecap:butt;stroke-linejoin:miter;stroke-miterlimit:4;stroke-dasharray:none;stroke-opacity:0.99607843" />
      <path
         inkscape:connector-curvature="0"
         id="path4992-1-3"
         d="m -34.948874,541.5063 58.434286,-9.46127 -1.404423,-0.26156"
         style="fill:none;fill-rule:evenodd;stroke:#00d6ff;stroke-width:3;stroke-linecap:butt;stroke-linejoin:miter;stroke-miterlimit:4;stroke-dasharray:none;stroke-opacity:0.99607843" />
      <path
         inkscape:connector-curvature="0"
         id="path4992-1-0"
         d="m -33.520303,558.64915 58.434286,-9.46127 -1.404423,-0.26156"
         style="fill:none;fill-rule:evenodd;stroke:#00d6ff;stroke-width:3;stroke-linecap:butt;stroke-linejoin:miter;stroke-miterlimit:4;stroke-dasharray:none;stroke-opacity:0.99607843" />
    </g>
  </g>
</svg>
